<?xml version="1.0" standalone="no"?>
<!DOCTYPE svg PUBLIC "-//W3C//DTD SVG 20010904//EN"
 "http://www.w3.org/TR/2001/REC-SVG-20010904/DTD/svg10.dtd">
<svg version="1.0" xmlns="http://www.w3.org/2000/svg"
 width="50.000000pt" height="50.000000pt" viewBox="0 0 50.000000 50.000000"
 preserveAspectRatio="xMidYMid meet">
<metadata>
Created by potrace 1.16, written by Peter Selinger 2001-2019
</metadata>
<g transform="translate(0.000000,50.000000) scale(0.100000,-0.100000)"
fill="#000000" stroke="none">
<path d="M187 493 c-4 -3 -7 -16 -8 -27 0 -21 -1 -21 -8 -1 -7 18 -10 17 -25
-14 -56 -108 -53 -138 24 -239 29 -37 39 -52 22 -34 l-29 33 -44 -53 c-80 -95
-77 -84 -33 -123 21 -19 46 -34 55 -35 9 0 32 19 51 42 48 60 51 67 38 83 -7
8 -10 15 -7 15 4 0 32 -31 63 -70 31 -38 64 -70 73 -70 9 1 34 16 55 35 34 31
37 37 25 52 -7 10 -43 54 -78 98 -36 44 -55 72 -43 61 21 -18 22 -18 42 5 45
54 43 106 -6 200 -15 31 -18 32 -25 14 -7 -17 -8 -16 -8 8 -1 27 -2 27 -64 27
-35 0 -67 -3 -70 -7z"/>
</g>
</svg>
